<svg width="37" height="40" viewBox="0 0 37 40" fill="none" xmlns="http://www.w3.org/2000/svg">
<path d="M26.1846 33.5966C24.8062 34.3925 24.3467 35.0543 24.3467 36.5193C24.3467 37.5483 25.4452 38.0541 26.4039 38.0541C28.6014 38.0541 32.7138 34.1299 32.7138 29.1229C31.807 25.5963 29.9933 19.8369 29.9933 25.0119C29.9933 31.4807 27.563 32.8008 26.1846 33.5966Z" fill="url(#paint0_linear_154_907)"/>
<path d="M18.4922 2.31348C19.8108 1.32646 21.6904 2.2678 21.6904 3.91504V7.94531C26.5638 8.35928 35.0068 11.2147 35.0068 21.5615C35.0068 32.8796 31.0965 36.8269 26.3867 38.0889C28.3575 37.2168 31.5889 35.5076 31.5889 32.0439C31.5888 26.834 27.4317 23.7408 21.6904 23.6182V27.4229C21.6904 29.0701 19.8108 30.0114 18.4922 29.0244L2.79395 17.2695C1.7262 16.4696 1.7262 14.8683 2.79395 14.0684L18.4922 2.31348Z" fill="#D9D9D9"/>
<defs>
<linearGradient id="paint0_linear_154_907" x1="28.3342" y1="35.2338" x2="32.7143" y2="24.8355" gradientUnits="userSpaceOnUse">
<stop stop-color="#D9D9D9"/>
<stop offset="1" stop-color="#737373"/>
</linearGradient>
</defs>
</svg>
