<svg width="37" height="41" viewBox="0 0 37 41" fill="none" xmlns="http://www.w3.org/2000/svg">
<path d="M28.0576 3.50281C29.3031 3.23457 30.4793 4.1839 30.4795 5.45789V7.99792C30.4796 8.0054 30.4805 8.01288 30.4805 8.02039V29.5839C30.4805 29.6443 30.475 29.7041 30.4668 29.7626C30.4562 31.5957 29.1511 33.2238 27.2822 33.5741L24.4209 34.1102C22.2495 34.5171 20.1598 33.0863 19.7529 30.9149L19.6035 30.119C19.2984 28.4905 20.3715 26.9232 22 26.618L25.8438 25.8973C26.0673 25.8555 26.2899 25.8336 26.5098 25.8305C27.2066 25.8207 27.9189 25.3328 27.9189 24.6359V13.9754C27.9189 13.3384 27.3312 12.8637 26.7084 12.9978L14.2504 15.6805C13.7898 15.7796 13.4609 16.1869 13.4609 16.6581V32.7343C13.4609 32.7901 13.4553 32.8451 13.4482 32.8993C13.4437 34.7377 12.137 36.3725 10.2637 36.7235L7.40137 37.2596C5.23003 37.6664 3.14022 36.2357 2.7334 34.0643L2.58398 33.2684C2.27907 31.6401 3.35211 30.0726 4.98047 29.7675L8.8252 29.0477C9.04871 29.0059 9.27135 28.9839 9.49126 28.9807C10.188 28.9705 10.9004 28.4823 10.9004 27.7854V11.1698C10.9004 11.1189 10.9034 11.0687 10.9092 11.0194V8.8114C10.9093 7.86933 11.5664 7.05485 12.4873 6.85632L28.0576 3.50281Z" fill="#CECECE"/>
<rect x="3.26074" y="30.1357" width="9.21964" height="4.2488" rx="2.1244" transform="rotate(-10.6137 3.26074 30.1357)" fill="url(#paint0_radial_155_1028)"/>
<rect x="19.9756" y="27.1986" width="9.21964" height="4.2488" rx="2.1244" transform="rotate(-10.6137 19.9756 27.1986)" fill="url(#paint1_radial_155_1028)"/>
<rect x="29.8193" y="7.27539" width="18.3016" height="3.84743" rx="1.92372" transform="rotate(168.489 29.8193 7.27539)" fill="url(#paint2_radial_155_1028)"/>
<defs>
<radialGradient id="paint0_radial_155_1028" cx="0" cy="0" r="1" gradientUnits="userSpaceOnUse" gradientTransform="translate(7.00094 32.5824) rotate(-90.4731) scale(1.54133 3.34636)">
<stop stop-color="white"/>
<stop offset="1" stop-color="#CECECE"/>
</radialGradient>
<radialGradient id="paint1_radial_155_1028" cx="0" cy="0" r="1" gradientUnits="userSpaceOnUse" gradientTransform="translate(23.7158 29.6452) rotate(-90.4731) scale(1.54133 3.34636)">
<stop stop-color="white"/>
<stop offset="1" stop-color="#CECECE"/>
</radialGradient>
<radialGradient id="paint2_radial_155_1028" cx="0" cy="0" r="1" gradientUnits="userSpaceOnUse" gradientTransform="translate(38.9098 9.21626) rotate(95.5701) scale(1.46176 9.00488)">
<stop stop-color="white"/>
<stop offset="1" stop-color="#CECECE"/>
</radialGradient>
</defs>
</svg>
