<svg width="37" height="40" viewBox="0 0 37 40" fill="none" xmlns="http://www.w3.org/2000/svg">
<path d="M5 3C5 1.89543 5.89543 1 7 1H25.0925C25.6692 1 26.2178 1.24896 26.5976 1.68299L29.4054 4.89194C29.4684 4.96389 29.5364 5.03123 29.609 5.09344L32.3016 7.40136C32.7449 7.78132 33 8.33602 33 8.91987V36.8C33 37.9046 32.1046 38.8 31 38.8H7C5.89543 38.8 5 37.9046 5 36.8V3Z" fill="#F2F2F2"/>
<g filter="url(#filter0_d_152_917)">
<path d="M26 8H33L26 1V8Z" fill="white"/>
</g>
<path d="M8 17L8.80199 18.5832C9.22123 19.4107 10.3755 19.4831 10.8947 18.7143L10.977 18.5925C11.4594 17.8783 12.5316 17.9455 12.9211 18.7143V18.7143C13.3105 19.4831 14.3827 19.5503 14.8651 18.8361L15.027 18.5964C15.494 17.905 16.5402 18.0018 16.8725 18.767V18.767C17.2408 19.6151 18.4435 19.6151 18.8117 18.767V18.767C19.144 18.0018 20.1902 17.905 20.6572 18.5964L21.0512 19.1797C21.5111 19.8606 22.4457 20.0207 23.106 19.5319L23.6546 19.1258C24.0156 18.8586 24.4522 18.7143 24.9015 18.7143C26.4175 18.7143 28.8137 18.7143 30 18.7143" stroke="#A1A1A1"/>
<path d="M8 22L8.80199 23.5832C9.22123 24.4107 10.3755 24.4831 10.8947 23.7143L10.977 23.5925C11.4594 22.8783 12.5316 22.9455 12.9211 23.7143V23.7143C13.3105 24.4831 14.3827 24.5503 14.8651 23.8361L15.027 23.5964C15.494 22.905 16.5402 23.0018 16.8725 23.767V23.767C17.2408 24.6151 18.4435 24.6151 18.8117 23.767V23.767C19.144 23.0018 20.1902 22.905 20.6572 23.5964L21.0512 24.1797C21.5111 24.8606 22.4457 25.0207 23.106 24.5319L23.6546 24.1258C24.0156 23.8586 24.4522 23.7143 24.9015 23.7143C26.4175 23.7143 28.8137 23.7143 30 23.7143" stroke="#A1A1A1"/>
<path d="M8 27L8.80199 28.5832C9.22123 29.4107 10.3755 29.4831 10.8947 28.7143L10.977 28.5925C11.4594 27.8783 12.5316 27.9455 12.9211 28.7143V28.7143C13.3105 29.4831 14.3827 29.5503 14.8651 28.8361L15.027 28.5964C15.494 27.905 16.5402 28.0018 16.8725 28.767V28.767C17.2408 29.6151 18.4435 29.6151 18.8117 28.767V28.767C19.144 28.0018 20.1902 27.905 20.6572 28.5964L21.0512 29.1797C21.5111 29.8606 22.4457 30.0207 23.106 29.5319L23.6546 29.1258C24.0156 28.8586 24.4522 28.7143 24.9015 28.7143C26.4175 28.7143 28.8137 28.7143 30 28.7143" stroke="#A1A1A1"/>
<path d="M8 32L8.80199 33.5832C9.22123 34.4107 10.3755 34.4831 10.8947 33.7143L10.977 33.5925C11.4594 32.8783 12.5316 32.9455 12.9211 33.7143V33.7143C13.3105 34.4831 14.3827 34.5503 14.8651 33.8361L15.027 33.5964C15.494 32.905 16.5402 33.0018 16.8725 33.767V33.767C17.2408 34.6151 18.4435 34.6151 18.8117 33.767V33.767C19.144 33.0018 20.1902 32.905 20.6572 33.5964L21.0512 34.1797C21.5111 34.8606 22.4457 35.0207 23.106 34.5319L23.6546 34.1258C24.0156 33.8586 24.4522 33.7143 24.9015 33.7143C26.4175 33.7143 28.8137 33.7143 30 33.7143" stroke="#A1A1A1"/>
<defs>
<filter id="filter0_d_152_917" x="24" y="1" width="9" height="9" filterUnits="userSpaceOnUse" color-interpolation-filters="sRGB">
<feFlood flood-opacity="0" result="BackgroundImageFix"/>
<feColorMatrix in="SourceAlpha" type="matrix" values="0 0 0 0 0 0 0 0 0 0 0 0 0 0 0 0 0 0 127 0" result="hardAlpha"/>
<feOffset dx="-1" dy="1"/>
<feGaussianBlur stdDeviation="0.5"/>
<feComposite in2="hardAlpha" operator="out"/>
<feColorMatrix type="matrix" values="0 0 0 0 0 0 0 0 0 0 0 0 0 0 0 0 0 0 0.15 0"/>
<feBlend mode="normal" in2="BackgroundImageFix" result="effect1_dropShadow_152_917"/>
<feBlend mode="normal" in="SourceGraphic" in2="effect1_dropShadow_152_917" result="shape"/>
</filter>
</defs>
</svg>
